<?xml version="1.0" standalone="no"?>
<!DOCTYPE svg PUBLIC "-//W3C//DTD SVG 20010904//EN"
 "http://www.w3.org/TR/2001/REC-SVG-20010904/DTD/svg10.dtd">
<svg version="1.0" xmlns="http://www.w3.org/2000/svg"
 width="700.000000pt" height="700.000000pt" viewBox="0 0 700.000000 700.000000"
 preserveAspectRatio="xMidYMid meet">
<metadata>
Created by potrace 1.11, written by Peter Selinger 2001-2013
</metadata>
<g transform="translate(0.000000,700.000000) scale(0.100000,-0.100000)"
fill="#000000" stroke="none">
<path d="M3225 6714 c-580 -61 -1082 -239 -1530 -545 -753 -512 -1249 -1302
-1386 -2204 -27 -179 -37 -566 -20 -752 59 -629 285 -1198 677 -1703 111 -143
374 -408 519 -524 459 -365 965 -584 1565 -679 117 -18 177 -21 450 -21 273 0
333 3 450 21 600 95 1106 314 1565 679 149 119 409 382 525 532 355 460 567
962 656 1552 21 144 30 554 15 717 -30 312 -100 609 -216 903 -71 181 -261
540 -285 540 -10 0 -178 -196 -187 -216 -2 -7 19 -53 48 -104 326 -579 440
-1305 310 -1975 -89 -456 -303 -912 -604 -1285 -104 -129 -339 -360 -467 -459
-828 -643 -1916 -803 -2880 -424 -658 259 -1224 770 -1539 1392 -88 172 -149
321 -196 476 -259 852 -129 1749 361 2487 879 1324 2645 1708 3991 868 121
-76 288 -199 365 -269 31 -28 60 -51 64 -51 13 0 186 208 182 219 -5 14 -124
112 -245 202 -353 265 -784 462 -1213 555 -249 55 -357 66 -655 69 -154 2
-298 1 -320 -1z"/>
<path d="M5919 5763 c-73 -87 -307 -363 -519 -613 -438 -516 -1235 -1457
-1723 -2033 l-329 -389 -42 40 c-22 21 -278 260 -568 531 l-528 491 -69 -72
c-37 -40 -81 -88 -96 -106 l-28 -34 34 -33 c103 -102 1314 -1225 1320 -1225 4
0 554 645 1222 1433 667 787 1315 1551 1438 1697 124 146 228 270 232 276 4 7
-26 38 -71 76 -42 36 -91 77 -108 91 l-32 27 -133 -157z"/>
</g>
</svg>
